<svg width="21" height="19" viewBox="0 0 21 19" fill="none" xmlns="http://www.w3.org/2000/svg">
<path d="M15.1003 0C16.7293 0 18.0976 0.54932 19.2052 1.64796C20.3129 2.7466 20.8668 4.08759 20.8668 5.67092C20.8668 6.44643 20.7039 7.23002 20.3781 8.02169C20.0523 8.81335 19.6939 9.51616 19.303 10.1301C18.912 10.744 18.2523 11.5357 17.3238 12.5051C16.3953 13.4745 15.6134 14.2581 14.9781 14.8559C14.3428 15.4537 13.3248 16.3665 11.9239 17.5944L10.4089 18.9515L8.89403 17.6429C7.52572 16.3827 6.51577 15.4537 5.8642 14.8559C5.21262 14.2581 4.42258 13.4745 3.49408 12.5051C2.56559 11.5357 1.90586 10.744 1.51492 10.1301C1.12397 9.51616 0.773748 8.81335 0.464249 8.02169C0.15475 7.23002 0 6.44643 0 5.67092C0 4.08759 0.553841 2.7466 1.66152 1.64796C2.7692 0.54932 4.12123 0 5.71759 0C7.60717 0 9.17095 0.727041 10.4089 2.18112C11.6469 0.727041 13.2107 0 15.1003 0Z" fill="#FF4646"/>
</svg>
