<svg width="21" height="19" viewBox="0 0 21 19" fill="none" xmlns="http://www.w3.org/2000/svg">
<path d="M20.3651 3.80168C20.0413 3.05774 19.5744 2.38358 18.9905 1.81695C18.4062 1.24864 17.7173 0.797002 16.9612 0.486611C16.1773 0.163477 15.3364 -0.00192189 14.4875 1.68483e-05C13.2965 1.68483e-05 12.1345 0.323614 11.1247 0.934852C10.8831 1.08107 10.6536 1.24167 10.4362 1.41665C10.2188 1.24167 9.98927 1.08107 9.7477 0.934852C8.7379 0.323614 7.5759 1.68483e-05 6.38492 1.68483e-05C5.52732 1.68483e-05 4.69629 0.163014 3.91116 0.486611C3.1526 0.798223 2.46893 1.24646 1.8819 1.81695C1.29727 2.38294 0.830252 3.05726 0.507315 3.80168C0.171521 4.57592 0 5.39809 0 6.24424C0 7.04245 0.164274 7.87421 0.490405 8.72035C0.763388 9.42747 1.15475 10.161 1.65481 10.9016C2.44719 12.0738 3.53671 13.2963 4.88955 14.5355C7.1314 16.5898 9.35151 18.0088 9.44572 18.0663L10.0183 18.4307C10.2719 18.5913 10.5981 18.5913 10.8517 18.4307L11.4243 18.0663C11.5185 18.0064 13.7362 16.5898 15.9804 14.5355C17.3333 13.2963 18.4228 12.0738 19.2152 10.9016C19.7152 10.161 20.109 9.42747 20.3796 8.72035C20.7057 7.87421 20.87 7.04245 20.87 6.24424C20.8724 5.39809 20.7009 4.57592 20.3651 3.80168V3.80168Z" fill="#FF8585"/>
</svg>
